# This file uses centimeters as units for non-parametric coordinates.

mtllib environment_cubes_yellow.mtl
g default
v 91.821060 78.641846 224.782761
v 111.574722 76.028664 203.256653
v 105.361809 102.871971 234.267105
v 125.115463 100.258865 212.741013
v 88.425201 119.196098 216.743378
v 108.178864 116.582916 195.217270
v 74.884460 94.965897 207.259018
v 94.638115 92.352791 185.732925
v -101.605141 136.551514 69.368690
v -80.902359 161.237686 48.122921
v -83.888947 149.140640 101.259842
v -63.186172 173.826828 80.014076
v -111.218918 176.001419 105.838821
v -90.516136 200.687592 84.593056
v -128.935104 163.412277 73.947670
v -108.232330 188.098465 52.701900
v 18.427174 11.712099 -44.374470
v 31.999573 27.936857 -45.290932
v 11.300932 18.727535 -25.711855
v 24.873333 34.952293 -26.628317
v -3.303840 30.382303 -35.669754
v 10.268560 46.607063 -36.586216
v 3.822400 23.366865 -54.332367
v 17.394802 39.591625 -55.248833
v -355.695923 138.029617 -267.446136
v -300.188660 118.280411 -285.222961
v -336.716705 138.682861 -208.910110
v -281.209442 118.933655 -226.686935
v -318.120056 196.963608 -215.590118
v -262.612793 177.214401 -233.366959
v -337.099274 196.310364 -274.126129
v -281.592010 176.561157 -291.902954
v -214.398621 98.442192 -301.644684
v -209.264709 133.986298 -287.514740
v -196.783295 83.590302 -270.684753
v -191.649384 119.134399 -256.554810
v -230.735291 81.259338 -252.485199
v -225.601379 116.803444 -238.355270
v -248.350616 96.111237 -283.445129
v -243.216705 131.655334 -269.315186
v 53.666344 -1.994865 -343.490967
v 80.261139 -11.725205 -353.306854
v 60.159931 25.591898 -353.243805
v 86.754723 15.861558 -363.059723
v 47.958912 19.064627 -379.830353
v 74.553703 9.334287 -389.646240
v 41.465324 -8.522136 -370.077484
v 68.060112 -18.252478 -379.893402
v 358.242737 71.105698 -145.199722
v 362.973938 82.295227 -157.696014
v 352.939484 84.421387 -135.284332
v 357.670654 95.610916 -147.780624
v 337.026001 83.310577 -142.303925
v 341.757202 94.500107 -154.800217
v 342.329285 69.994888 -152.219315
v 347.060455 81.184418 -164.715607
v 286.446136 160.921753 -79.857414
v 279.658844 189.787949 -104.557030
v 255.243866 171.000290 -59.504578
v 248.456604 199.866486 -84.204193
v 233.570206 147.451157 -81.070442
v 226.782944 176.317352 -105.770058
v 264.772461 137.372620 -101.423279
v 257.985199 166.238815 -126.122894
v 403.724030 190.273224 394.290710
v 413.303253 194.429199 336.068512
v 355.594238 224.216553 388.794861
v 365.173309 228.372574 330.572723
v 322.570038 175.952545 379.916290
v 332.149261 180.108521 321.694092
v 370.699982 142.009171 385.412079
v 380.279053 146.165192 327.189941
v -265.029633 135.124115 264.335175
v -253.051666 111.878120 211.278534
v -305.869080 170.157333 239.766006
v -293.891235 146.911407 186.709366
v -346.948334 128.550400 248.721497
v -334.970367 105.304405 195.664841
v -306.108765 93.517120 273.290680
v -294.130920 70.271194 220.234024
vt 0.375000 0.000000
vt 0.625000 0.000000
vt 0.625000 0.250000
vt 0.375000 0.250000
vt 0.625000 0.500000
vt 0.375000 0.500000
vt 0.625000 0.750000
vt 0.375000 0.750000
vt 0.625000 1.000000
vt 0.375000 1.000000
vt 0.875000 0.000000
vt 0.875000 0.250000
vt 0.125000 0.000000
vt 0.125000 0.250000
vt 0.375000 0.000000
vt 0.625000 0.000000
vt 0.625000 0.250000
vt 0.375000 0.250000
vt 0.625000 0.500000
vt 0.375000 0.500000
vt 0.625000 0.750000
vt 0.375000 0.750000
vt 0.625000 1.000000
vt 0.375000 1.000000
vt 0.875000 0.000000
vt 0.875000 0.250000
vt 0.125000 0.000000
vt 0.125000 0.250000
vt 0.375000 0.000000
vt 0.625000 0.000000
vt 0.625000 0.250000
vt 0.375000 0.250000
vt 0.625000 0.500000
vt 0.375000 0.500000
vt 0.625000 0.750000
vt 0.375000 0.750000
vt 0.625000 1.000000
vt 0.375000 1.000000
vt 0.875000 0.000000
vt 0.875000 0.250000
vt 0.125000 0.000000
vt 0.125000 0.250000
vt 0.375000 0.000000
vt 0.625000 0.000000
vt 0.625000 0.250000
vt 0.375000 0.250000
vt 0.625000 0.500000
vt 0.375000 0.500000
vt 0.625000 0.750000
vt 0.375000 0.750000
vt 0.625000 1.000000
vt 0.375000 1.000000
vt 0.875000 0.000000
vt 0.875000 0.250000
vt 0.125000 0.000000
vt 0.125000 0.250000
vt 0.375000 0.000000
vt 0.625000 0.000000
vt 0.625000 0.250000
vt 0.375000 0.250000
vt 0.625000 0.500000
vt 0.375000 0.500000
vt 0.625000 0.750000
vt 0.375000 0.750000
vt 0.625000 1.000000
vt 0.375000 1.000000
vt 0.875000 0.000000
vt 0.875000 0.250000
vt 0.125000 0.000000
vt 0.125000 0.250000
vt 0.375000 0.000000
vt 0.625000 0.000000
vt 0.625000 0.250000
vt 0.375000 0.250000
vt 0.625000 0.500000
vt 0.375000 0.500000
vt 0.625000 0.750000
vt 0.375000 0.750000
vt 0.625000 1.000000
vt 0.375000 1.000000
vt 0.875000 0.000000
vt 0.875000 0.250000
vt 0.125000 0.000000
vt 0.125000 0.250000
vt 0.375000 0.000000
vt 0.625000 0.000000
vt 0.625000 0.250000
vt 0.375000 0.250000
vt 0.625000 0.500000
vt 0.375000 0.500000
vt 0.625000 0.750000
vt 0.375000 0.750000
vt 0.625000 1.000000
vt 0.375000 1.000000
vt 0.875000 0.000000
vt 0.875000 0.250000
vt 0.125000 0.000000
vt 0.125000 0.250000
vt 0.375000 0.000000
vt 0.625000 0.000000
vt 0.625000 0.250000
vt 0.375000 0.250000
vt 0.625000 0.500000
vt 0.375000 0.500000
vt 0.625000 0.750000
vt 0.375000 0.750000
vt 0.625000 1.000000
vt 0.375000 1.000000
vt 0.875000 0.000000
vt 0.875000 0.250000
vt 0.125000 0.000000
vt 0.125000 0.250000
vt 0.375000 0.000000
vt 0.625000 0.000000
vt 0.625000 0.250000
vt 0.375000 0.250000
vt 0.625000 0.500000
vt 0.375000 0.500000
vt 0.625000 0.750000
vt 0.375000 0.750000
vt 0.625000 1.000000
vt 0.375000 1.000000
vt 0.875000 0.000000
vt 0.875000 0.250000
vt 0.125000 0.000000
vt 0.125000 0.250000
vt 0.375000 0.000000
vt 0.625000 0.000000
vt 0.625000 0.250000
vt 0.375000 0.250000
vt 0.625000 0.500000
vt 0.375000 0.500000
vt 0.625000 0.750000
vt 0.375000 0.750000
vt 0.625000 1.000000
vt 0.375000 1.000000
vt 0.875000 0.000000
vt 0.875000 0.250000
vt 0.125000 0.000000
vt 0.125000 0.250000
vn 0.577398 -0.556516 0.597413
vn 0.577398 -0.556516 0.597413
vn 0.577398 -0.556516 0.597413
vn 0.577398 -0.556516 0.597413
vn 0.461626 0.826047 0.323339
vn 0.461626 0.826047 0.323339
vn 0.461626 0.826047 0.323339
vn 0.461626 0.826047 0.323339
vn -0.577398 0.556516 -0.597413
vn -0.577398 0.556516 -0.597413
vn -0.577398 0.556516 -0.597413
vn -0.577398 0.556516 -0.597413
vn -0.461626 -0.826047 -0.323338
vn -0.461626 -0.826047 -0.323338
vn -0.461626 -0.826047 -0.323338
vn -0.461626 -0.826047 -0.323338
vn 0.673435 -0.089088 -0.733859
vn 0.673435 -0.089088 -0.733859
vn 0.673435 -0.089088 -0.733859
vn 0.673435 -0.089088 -0.733859
vn -0.673434 0.089088 0.733859
vn -0.673434 0.089088 0.733859
vn -0.673434 0.089088 0.733859
vn -0.673434 0.089088 0.733859
vn 0.708165 -0.696007 -0.118649
vn 0.708165 -0.696007 -0.118649
vn 0.708165 -0.696007 -0.118649
vn 0.708165 -0.696007 -0.118649
vn 0.459056 0.326205 0.826352
vn 0.459056 0.326205 0.826352
vn 0.459056 0.326205 0.826352
vn 0.459056 0.326205 0.826352
vn -0.708164 0.696007 0.118649
vn -0.708164 0.696007 0.118649
vn -0.708164 0.696007 0.118649
vn -0.708164 0.696007 0.118649
vn -0.459056 -0.326205 -0.826352
vn -0.459056 -0.326205 -0.826352
vn -0.459056 -0.326205 -0.826352
vn -0.459056 -0.326205 -0.826352
vn 0.536443 0.639660 -0.550513
vn 0.536443 0.639660 -0.550513
vn 0.536443 0.639660 -0.550513
vn 0.536443 0.639660 -0.550513
vn -0.536443 -0.639660 0.550513
vn -0.536443 -0.639660 0.550513
vn -0.536443 -0.639660 0.550513
vn -0.536443 -0.639660 0.550513
vn 0.689786 -0.550456 0.470313
vn 0.689786 -0.550456 0.470313
vn 0.689786 -0.550456 0.470313
vn 0.689785 -0.550456 0.470313
vn -0.336573 0.331340 0.881438
vn -0.336573 0.331340 0.881438
vn -0.336573 0.331340 0.881438
vn -0.336573 0.331340 0.881438
vn -0.689786 0.550456 -0.470313
vn -0.689786 0.550456 -0.470313
vn -0.689785 0.550456 -0.470313
vn -0.689786 0.550456 -0.470313
vn 0.336573 -0.331340 -0.881438
vn 0.336573 -0.331340 -0.881438
vn 0.336573 -0.331340 -0.881438
vn 0.336573 -0.331340 -0.881438
vn 0.641026 0.766297 -0.043285
vn 0.641026 0.766297 -0.043285
vn 0.641026 0.766297 -0.043285
vn 0.641026 0.766297 -0.043285
vn -0.641026 -0.766298 0.043285
vn -0.641026 -0.766298 0.043285
vn -0.641026 -0.766298 0.043285
vn -0.641026 -0.766298 0.043285
vn -0.302191 -0.947047 0.108549
vn -0.302191 -0.947047 0.108549
vn -0.302191 -0.947047 0.108549
vn -0.302191 -0.947047 0.108549
vn 0.308408 0.010615 0.951195
vn 0.308408 0.010615 0.951195
vn 0.308408 0.010615 0.951195
vn 0.308408 0.010615 0.951195
vn 0.302191 0.947047 -0.108549
vn 0.302191 0.947047 -0.108549
vn 0.302191 0.947047 -0.108549
vn 0.302191 0.947047 -0.108549
vn -0.308408 -0.010615 -0.951195
vn -0.308408 -0.010615 -0.951195
vn -0.308408 -0.010615 -0.951195
vn -0.308408 -0.010615 -0.951195
vn 0.901979 -0.320919 -0.288869
vn 0.901979 -0.320919 -0.288869
vn 0.901979 -0.320919 -0.288869
vn 0.901979 -0.320919 -0.288869
vn -0.901979 0.320919 0.288869
vn -0.901979 0.320919 0.288869
vn -0.901979 0.320919 0.288869
vn -0.901979 0.320919 0.288869
vn 0.879752 0.060399 -0.471580
vn 0.879752 0.060399 -0.471580
vn 0.879753 0.060399 -0.471580
vn 0.879752 0.060399 -0.471580
vn 0.456442 -0.384837 0.802222
vn 0.456442 -0.384837 0.802222
vn 0.456442 -0.384837 0.802222
vn 0.456442 -0.384837 0.802222
vn -0.879752 -0.060399 0.471580
vn -0.879752 -0.060399 0.471580
vn -0.879752 -0.060399 0.471580
vn -0.879752 -0.060399 0.471580
vn -0.456443 0.384838 -0.802222
vn -0.456443 0.384838 -0.802222
vn -0.456443 0.384838 -0.802222
vn -0.456443 0.384837 -0.802222
vn 0.133028 0.921006 0.366130
vn 0.133028 0.921006 0.366130
vn 0.133028 0.921006 0.366130
vn 0.133028 0.921006 0.366130
vn -0.133028 -0.921006 -0.366130
vn -0.133028 -0.921006 -0.366130
vn -0.133028 -0.921006 -0.366130
vn -0.133028 -0.921006 -0.366130
vn 0.407082 0.217780 0.887049
vn 0.407082 0.217780 0.887049
vn 0.407082 0.217780 0.887049
vn 0.407082 0.217780 0.887049
vn 0.216656 0.920421 -0.325400
vn 0.216656 0.920421 -0.325400
vn 0.216656 0.920421 -0.325400
vn 0.216656 0.920421 -0.325400
vn -0.407083 -0.217780 -0.887049
vn -0.407083 -0.217780 -0.887049
vn -0.407083 -0.217780 -0.887049
vn -0.407083 -0.217780 -0.887049
vn -0.216656 -0.920421 0.325400
vn -0.216656 -0.920421 0.325400
vn -0.216655 -0.920421 0.325400
vn -0.216656 -0.920421 0.325400
vn 0.887325 -0.324649 -0.327504
vn 0.887324 -0.324649 -0.327504
vn 0.887324 -0.324649 -0.327504
vn 0.887324 -0.324649 -0.327504
vn -0.887324 0.324649 0.327504
vn -0.887325 0.324649 0.327504
vn -0.887324 0.324649 0.327504
vn -0.887324 0.324649 0.327504
vn 0.913080 0.063738 0.402770
vn 0.913080 0.063738 0.402770
vn 0.913080 0.063738 0.402770
vn 0.913080 0.063738 0.402770
vn -0.304290 0.764025 0.568924
vn -0.304290 0.764025 0.568924
vn -0.304290 0.764025 0.568924
vn -0.304290 0.764024 0.568924
vn -0.913080 -0.063738 -0.402770
vn -0.913080 -0.063738 -0.402770
vn -0.913080 -0.063738 -0.402770
vn -0.913080 -0.063738 -0.402770
vn 0.304289 -0.764025 -0.568924
vn 0.304289 -0.764025 -0.568924
vn 0.304289 -0.764025 -0.568924
vn 0.304289 -0.764025 -0.568924
vn 0.271464 0.642031 -0.717010
vn 0.271464 0.642032 -0.717010
vn 0.271464 0.642032 -0.717010
vn 0.271464 0.642032 -0.717010
vn -0.271465 -0.642031 0.717010
vn -0.271465 -0.642031 0.717010
vn -0.271465 -0.642031 0.717010
vn -0.271465 -0.642031 0.717010
vn 0.561601 0.610196 0.558807
vn 0.561600 0.610196 0.558807
vn 0.561601 0.610196 0.558807
vn 0.561601 0.610196 0.558807
vn -0.808502 0.261152 0.527375
vn -0.808502 0.261152 0.527375
vn -0.808502 0.261152 0.527375
vn -0.808502 0.261152 0.527375
vn -0.561600 -0.610196 -0.558807
vn -0.561600 -0.610196 -0.558807
vn -0.561600 -0.610196 -0.558807
vn -0.561600 -0.610196 -0.558807
vn 0.808502 -0.261151 -0.527375
vn 0.808502 -0.261151 -0.527375
vn 0.808502 -0.261151 -0.527375
vn 0.808502 -0.261151 -0.527375
vn -0.175870 0.747971 -0.640008
vn -0.175870 0.747971 -0.640008
vn -0.175870 0.747971 -0.640008
vn -0.175870 0.747971 -0.640008
vn 0.175870 -0.747971 0.640008
vn 0.175870 -0.747971 0.640008
vn 0.175870 -0.747971 0.640008
vn 0.175870 -0.747971 0.640008
vn 0.558303 0.815946 0.150100
vn 0.558303 0.815946 0.150100
vn 0.558303 0.815946 0.150100
vn 0.558303 0.815946 0.150100
vn -0.813678 0.573842 -0.092911
vn -0.813678 0.573842 -0.092911
vn -0.813679 0.573842 -0.092911
vn -0.813678 0.573842 -0.092911
vn -0.558303 -0.815946 -0.150099
vn -0.558303 -0.815946 -0.150099
vn -0.558303 -0.815946 -0.150099
vn -0.558303 -0.815946 -0.150099
vn 0.813679 -0.573842 0.092911
vn 0.813679 -0.573842 0.092911
vn 0.813679 -0.573842 0.092911
vn 0.813679 -0.573842 0.092911
vn 0.161945 0.070261 -0.984295
vn 0.161945 0.070261 -0.984295
vn 0.161945 0.070261 -0.984295
vn 0.161945 0.070261 -0.984295
vn -0.161945 -0.070261 0.984295
vn -0.161945 -0.070261 0.984295
vn -0.161945 -0.070261 0.984295
vn -0.161945 -0.070261 0.984295
vn 0.694481 0.703402 -0.151401
vn 0.694481 0.703402 -0.151401
vn 0.694481 0.703402 -0.151401
vn 0.694481 0.703402 -0.151401
vn -0.690429 0.592268 -0.415362
vn -0.690429 0.592268 -0.415362
vn -0.690429 0.592268 -0.415363
vn -0.690429 0.592268 -0.415362
vn -0.694481 -0.703402 0.151401
vn -0.694481 -0.703402 0.151401
vn -0.694481 -0.703402 0.151401
vn -0.694481 -0.703402 0.151401
vn 0.690429 -0.592269 0.415362
vn 0.690429 -0.592269 0.415362
vn 0.690429 -0.592269 0.415363
vn 0.690429 -0.592269 0.415362
vn 0.202499 -0.392993 -0.896968
vn 0.202499 -0.392993 -0.896968
vn 0.202499 -0.392993 -0.896968
vn 0.202499 -0.392993 -0.896968
vn -0.202498 0.392993 0.896968
vn -0.202498 0.392993 0.896968
vn -0.202498 0.392993 0.896968
vn -0.202498 0.392993 0.896968
s off
g cube_yellow
usemtl blinn1SG
f 1/1/1 2/2/2 4/3/3 3/4/4
f 3/4/5 4/3/6 6/5/7 5/6/8
f 5/6/9 6/5/10 8/7/11 7/8/12
f 7/8/13 8/7/14 2/9/15 1/10/16
f 2/2/17 8/11/18 6/12/19 4/3/20
f 7/13/21 1/1/22 3/4/23 5/14/24
f 9/15/25 10/16/26 12/17/27 11/18/28
f 11/18/29 12/17/30 14/19/31 13/20/32
f 13/20/33 14/19/34 16/21/35 15/22/36
f 15/22/37 16/21/38 10/23/39 9/24/40
f 10/16/41 16/25/42 14/26/43 12/17/44
f 15/27/45 9/15/46 11/18/47 13/28/48
f 17/29/49 18/30/50 20/31/51 19/32/52
f 19/32/53 20/31/54 22/33/55 21/34/56
f 21/34/57 22/33/58 24/35/59 23/36/60
f 23/36/61 24/35/62 18/37/63 17/38/64
f 18/30/65 24/39/66 22/40/67 20/31/68
f 23/41/69 17/29/70 19/32/71 21/42/72
f 25/43/73 26/44/74 28/45/75 27/46/76
f 27/46/77 28/45/78 30/47/79 29/48/80
f 29/48/81 30/47/82 32/49/83 31/50/84
f 31/50/85 32/49/86 26/51/87 25/52/88
f 26/44/89 32/53/90 30/54/91 28/45/92
f 31/55/93 25/43/94 27/46/95 29/56/96
f 33/57/97 34/58/98 36/59/99 35/60/100
f 35/60/101 36/59/102 38/61/103 37/62/104
f 37/62/105 38/61/106 40/63/107 39/64/108
f 39/64/109 40/63/110 34/65/111 33/66/112
f 34/58/113 40/67/114 38/68/115 36/59/116
f 39/69/117 33/57/118 35/60/119 37/70/120
f 41/71/121 42/72/122 44/73/123 43/74/124
f 43/74/125 44/73/126 46/75/127 45/76/128
f 45/76/129 46/75/130 48/77/131 47/78/132
f 47/78/133 48/77/134 42/79/135 41/80/136
f 42/72/137 48/81/138 46/82/139 44/73/140
f 47/83/141 41/71/142 43/74/143 45/84/144
f 49/85/145 50/86/146 52/87/147 51/88/148
f 51/88/149 52/87/150 54/89/151 53/90/152
f 53/90/153 54/89/154 56/91/155 55/92/156
f 55/92/157 56/91/158 50/93/159 49/94/160
f 50/86/161 56/95/162 54/96/163 52/87/164
f 55/97/165 49/85/166 51/88/167 53/98/168
f 57/99/169 58/100/170 60/101/171 59/102/172
f 59/102/173 60/101/174 62/103/175 61/104/176
f 61/104/177 62/103/178 64/105/179 63/106/180
f 63/106/181 64/105/182 58/107/183 57/108/184
f 58/100/185 64/109/186 62/110/187 60/101/188
f 63/111/189 57/99/190 59/102/191 61/112/192
f 65/113/193 66/114/194 68/115/195 67/116/196
f 67/116/197 68/115/198 70/117/199 69/118/200
f 69/118/201 70/117/202 72/119/203 71/120/204
f 71/120/205 72/119/206 66/121/207 65/122/208
f 66/114/209 72/123/210 70/124/211 68/115/212
f 71/125/213 65/113/214 67/116/215 69/126/216
f 73/127/217 74/128/218 76/129/219 75/130/220
f 75/130/221 76/129/222 78/131/223 77/132/224
f 77/132/225 78/131/226 80/133/227 79/134/228
f 79/134/229 80/133/230 74/135/231 73/136/232
f 74/128/233 80/137/234 78/138/235 76/129/236
f 79/139/237 73/127/238 75/130/239 77/140/240
