# This file uses centimeters as units for non-parametric coordinates.

mtllib environment_cubes_blue.mtl
g default
v -414.364471 140.055923 -112.333733
v -400.505829 140.319199 -106.833649
v -418.526550 150.309265 -102.337318
v -404.667908 150.572540 -96.837234
v -414.921356 161.134323 -111.939545
v -401.062714 161.397598 -106.439461
v -410.759277 150.880981 -121.935959
v -396.900635 151.144257 -116.435875
v -131.923431 114.048782 -302.110077
v -80.936935 97.882034 -306.689392
v -115.326378 164.787109 -296.442871
v -64.339874 148.620361 -301.022217
v -117.947784 171.585312 -349.630005
v -66.961288 155.418564 -354.209320
v -134.544846 120.846985 -355.297180
v -83.558342 104.680237 -359.876526
v -305.754303 152.626404 -396.615570
v -279.158600 162.471588 -389.510590
v -317.889069 174.735992 -381.828674
v -291.293396 184.581161 -374.723694
v -317.495453 191.136536 -406.027985
v -290.899750 200.981720 -398.923004
v -305.360657 169.026962 -420.814880
v -278.764984 178.872131 -413.709900
v 68.226479 35.719780 -241.734009
v 84.461411 48.501976 -230.682343
v 53.173401 53.622959 -240.327545
v 69.408340 66.405151 -229.275879
v 60.849915 61.696907 -260.942566
v 77.084846 74.479103 -249.890900
v 75.902985 43.793728 -262.349030
v 92.137924 56.575924 -251.297363
v 84.283813 42.693390 123.819733
v 107.258118 30.970407 111.930824
v 100.949486 60.023273 138.936707
v 123.923790 48.300293 127.047806
v 99.934814 79.228477 118.038780
v 122.909119 67.505493 106.149872
v 83.269142 61.898590 102.921799
v 106.243446 50.175610 91.032890
v -62.216251 136.020706 -1.207497
v -18.699633 170.282501 28.415722
v -87.645355 188.497284 -24.545691
v -44.128738 222.759064 5.077530
v -50.165154 184.321075 -74.774109
v -6.648533 218.582870 -45.150894
v -24.736046 131.844513 -51.435921
v 18.780575 166.106293 -21.812700
v 68.867210 42.767052 -62.610748
v 82.432976 47.788822 -58.986691
v 62.677567 54.044571 -55.068340
v 76.243332 59.066341 -51.444283
v 62.878349 62.410061 -67.411774
v 76.444115 67.431831 -63.787712
v 69.067993 51.132542 -74.954178
v 82.633759 56.154312 -71.330124
v -209.426285 46.854080 106.362206
v -187.154984 40.188900 103.419083
v -202.725845 69.308029 106.215317
v -180.454559 62.642845 103.272194
v -205.587814 70.009979 82.968521
v -183.316513 63.344803 80.025398
v -212.288239 47.556038 83.115410
v -190.016953 40.890858 80.172287
v 3.863445 40.697624 262.187012
v 24.936920 64.807907 299.960144
v -38.762474 64.360916 270.863739
v -17.688999 88.471207 308.636871
v -24.936920 100.567947 240.039856
v -3.863445 124.678230 277.812988
v 17.688999 76.904648 231.363129
v 38.762474 101.014938 269.136261
v 394.467896 82.259949 104.484329
v 385.011414 108.556747 120.927620
v 384.283203 63.389626 128.805344
v 374.826721 89.686432 145.248642
v 354.988586 61.461395 115.041817
v 345.532104 87.758194 131.485107
v 365.173279 80.331711 90.720795
v 355.716797 106.628517 107.164085
v -333.524506 131.149994 354.436249
v -342.980988 157.446808 370.879547
v -343.709198 112.279678 378.757263
v -353.165680 138.576492 395.200562
v -373.003815 110.351448 364.993744
v -382.460297 136.648254 381.437042
v -362.819122 129.221756 340.672729
v -372.275604 155.518570 357.116028
vt 0.375000 0.000000
vt 0.625000 0.000000
vt 0.625000 0.250000
vt 0.375000 0.250000
vt 0.625000 0.500000
vt 0.375000 0.500000
vt 0.625000 0.750000
vt 0.375000 0.750000
vt 0.625000 1.000000
vt 0.375000 1.000000
vt 0.875000 0.000000
vt 0.875000 0.250000
vt 0.125000 0.000000
vt 0.125000 0.250000
vt 0.375000 0.000000
vt 0.625000 0.000000
vt 0.625000 0.250000
vt 0.375000 0.250000
vt 0.625000 0.500000
vt 0.375000 0.500000
vt 0.625000 0.750000
vt 0.375000 0.750000
vt 0.625000 1.000000
vt 0.375000 1.000000
vt 0.875000 0.000000
vt 0.875000 0.250000
vt 0.125000 0.000000
vt 0.125000 0.250000
vt 0.375000 0.000000
vt 0.625000 0.000000
vt 0.625000 0.250000
vt 0.375000 0.250000
vt 0.625000 0.500000
vt 0.375000 0.500000
vt 0.625000 0.750000
vt 0.375000 0.750000
vt 0.625000 1.000000
vt 0.375000 1.000000
vt 0.875000 0.000000
vt 0.875000 0.250000
vt 0.125000 0.000000
vt 0.125000 0.250000
vt 0.375000 0.000000
vt 0.625000 0.000000
vt 0.625000 0.250000
vt 0.375000 0.250000
vt 0.625000 0.500000
vt 0.375000 0.500000
vt 0.625000 0.750000
vt 0.375000 0.750000
vt 0.625000 1.000000
vt 0.375000 1.000000
vt 0.875000 0.000000
vt 0.875000 0.250000
vt 0.125000 0.000000
vt 0.125000 0.250000
vt 0.375000 0.000000
vt 0.625000 0.000000
vt 0.625000 0.250000
vt 0.375000 0.250000
vt 0.625000 0.500000
vt 0.375000 0.500000
vt 0.625000 0.750000
vt 0.375000 0.750000
vt 0.625000 1.000000
vt 0.375000 1.000000
vt 0.875000 0.000000
vt 0.875000 0.250000
vt 0.125000 0.000000
vt 0.125000 0.250000
vt 0.375000 0.000000
vt 0.625000 0.000000
vt 0.625000 0.250000
vt 0.375000 0.250000
vt 0.625000 0.500000
vt 0.375000 0.500000
vt 0.625000 0.750000
vt 0.375000 0.750000
vt 0.625000 1.000000
vt 0.375000 1.000000
vt 0.875000 0.000000
vt 0.875000 0.250000
vt 0.125000 0.000000
vt 0.125000 0.250000
vt 0.375000 0.000000
vt 0.625000 0.000000
vt 0.625000 0.250000
vt 0.375000 0.250000
vt 0.625000 0.500000
vt 0.375000 0.500000
vt 0.625000 0.750000
vt 0.375000 0.750000
vt 0.625000 1.000000
vt 0.375000 1.000000
vt 0.875000 0.000000
vt 0.875000 0.250000
vt 0.125000 0.000000
vt 0.125000 0.250000
vt 0.375000 0.000000
vt 0.625000 0.000000
vt 0.625000 0.250000
vt 0.375000 0.250000
vt 0.625000 0.500000
vt 0.375000 0.500000
vt 0.625000 0.750000
vt 0.375000 0.750000
vt 0.625000 1.000000
vt 0.375000 1.000000
vt 0.875000 0.000000
vt 0.875000 0.250000
vt 0.125000 0.000000
vt 0.125000 0.250000
vt 0.375000 0.000000
vt 0.625000 0.000000
vt 0.625000 0.250000
vt 0.375000 0.250000
vt 0.625000 0.500000
vt 0.375000 0.500000
vt 0.625000 0.750000
vt 0.375000 0.750000
vt 0.625000 1.000000
vt 0.375000 1.000000
vt 0.875000 0.000000
vt 0.875000 0.250000
vt 0.125000 0.000000
vt 0.125000 0.250000
vt 0.375000 0.000000
vt 0.625000 0.000000
vt 0.625000 0.250000
vt 0.375000 0.250000
vt 0.625000 0.500000
vt 0.375000 0.500000
vt 0.625000 0.750000
vt 0.375000 0.750000
vt 0.625000 1.000000
vt 0.375000 1.000000
vt 0.875000 0.000000
vt 0.875000 0.250000
vt 0.125000 0.000000
vt 0.125000 0.250000
vt 0.375000 0.000000
vt 0.625000 0.000000
vt 0.625000 0.250000
vt 0.375000 0.250000
vt 0.625000 0.500000
vt 0.375000 0.500000
vt 0.625000 0.750000
vt 0.375000 0.750000
vt 0.625000 1.000000
vt 0.375000 1.000000
vt 0.875000 0.000000
vt 0.875000 0.250000
vt 0.125000 0.000000
vt 0.125000 0.250000
vn -0.241757 -0.725905 0.643906
vn -0.241757 -0.725905 0.643906
vn -0.241757 -0.725905 0.643906
vn -0.241757 -0.725905 0.643906
vn -0.279099 0.687567 0.670339
vn -0.279099 0.687567 0.670339
vn -0.279099 0.687567 0.670339
vn -0.279099 0.687567 0.670339
vn 0.241757 0.725906 -0.643906
vn 0.241757 0.725906 -0.643906
vn 0.241757 0.725906 -0.643906
vn 0.241757 0.725906 -0.643906
vn 0.279099 -0.687569 -0.670338
vn 0.279099 -0.687569 -0.670338
vn 0.279099 -0.687569 -0.670338
vn 0.279099 -0.687569 -0.670338
vn 0.929331 0.017656 0.368825
vn 0.929331 0.017656 0.368825
vn 0.929331 0.017656 0.368825
vn 0.929331 0.017656 0.368825
vn -0.929331 -0.017656 -0.368825
vn -0.929331 -0.017656 -0.368825
vn -0.929331 -0.017656 -0.368825
vn -0.929331 -0.017656 -0.368825
vn 0.048830 -0.126634 0.990747
vn 0.048830 -0.126634 0.990747
vn 0.048830 -0.126634 0.990747
vn 0.048830 -0.126634 0.990747
vn 0.309163 0.945132 0.105566
vn 0.309163 0.945132 0.105566
vn 0.309163 0.945132 0.105566
vn 0.309163 0.945132 0.105566
vn -0.048831 0.126634 -0.990747
vn -0.048831 0.126634 -0.990747
vn -0.048831 0.126634 -0.990747
vn -0.048831 0.126634 -0.990747
vn -0.309163 -0.945132 -0.105566
vn -0.309163 -0.945132 -0.105566
vn -0.309163 -0.945132 -0.105566
vn -0.309163 -0.945132 -0.105566
vn 0.949755 -0.301147 -0.085302
vn 0.949755 -0.301147 -0.085302
vn 0.949755 -0.301147 -0.085302
vn 0.949755 -0.301147 -0.085302
vn -0.949755 0.301147 0.085302
vn -0.949755 0.301147 0.085302
vn -0.949755 0.301147 0.085302
vn -0.949755 0.301147 0.085302
vn -0.013466 -0.560973 0.827725
vn -0.013466 -0.560973 0.827725
vn -0.013466 -0.560973 0.827725
vn -0.013466 -0.560973 0.827725
vn -0.415064 0.756248 0.505778
vn -0.415064 0.756247 0.505778
vn -0.415064 0.756247 0.505778
vn -0.415064 0.756247 0.505778
vn 0.013465 0.560972 -0.827725
vn 0.013465 0.560972 -0.827725
vn 0.013465 0.560972 -0.827725
vn 0.013465 0.560972 -0.827725
vn 0.415064 -0.756248 -0.505778
vn 0.415064 -0.756248 -0.505778
vn 0.415064 -0.756248 -0.505778
vn 0.415064 -0.756248 -0.505778
vn 0.909693 0.336748 0.243022
vn 0.909693 0.336748 0.243022
vn 0.909693 0.336748 0.243022
vn 0.909693 0.336748 0.243022
vn -0.909693 -0.336747 -0.243022
vn -0.909693 -0.336747 -0.243022
vn -0.909693 -0.336747 -0.243022
vn -0.909693 -0.336747 -0.243022
vn -0.327597 -0.344557 0.879750
vn -0.327597 -0.344557 0.879750
vn -0.327597 -0.344557 0.879750
vn -0.327597 -0.344557 0.879750
vn -0.642393 0.764021 0.060021
vn -0.642393 0.764021 0.060021
vn -0.642393 0.764021 0.060021
vn -0.642393 0.764021 0.060021
vn 0.327597 0.344557 -0.879750
vn 0.327597 0.344557 -0.879750
vn 0.327597 0.344557 -0.879750
vn 0.327597 0.344557 -0.879750
vn 0.642392 -0.764022 -0.060021
vn 0.642392 -0.764022 -0.060021
vn 0.642392 -0.764022 -0.060021
vn 0.642392 -0.764022 -0.060021
vn 0.692828 0.545483 0.471632
vn 0.692829 0.545483 0.471632
vn 0.692829 0.545483 0.471632
vn 0.692828 0.545483 0.471632
vn -0.692830 -0.545482 -0.471632
vn -0.692830 -0.545482 -0.471632
vn -0.692830 -0.545482 -0.471632
vn -0.692830 -0.545482 -0.471632
vn 0.035727 -0.676226 0.735828
vn 0.035727 -0.676226 0.735828
vn 0.035727 -0.676226 0.735828
vn 0.035727 -0.676226 0.735828
vn 0.586808 0.610195 0.532278
vn 0.586807 0.610195 0.532278
vn 0.586808 0.610195 0.532278
vn 0.586808 0.610195 0.532278
vn -0.035727 0.676225 -0.735828
vn -0.035727 0.676225 -0.735828
vn -0.035727 0.676225 -0.735828
vn -0.035727 0.676225 -0.735828
vn -0.586808 -0.610195 -0.532278
vn -0.586808 -0.610195 -0.532278
vn -0.586808 -0.610195 -0.532278
vn -0.586808 -0.610195 -0.532278
vn 0.808938 -0.412773 -0.418615
vn 0.808938 -0.412773 -0.418615
vn 0.808938 -0.412773 -0.418615
vn 0.808938 -0.412773 -0.418615
vn -0.808938 0.412772 0.418615
vn -0.808938 0.412772 0.418615
vn -0.808938 0.412772 0.418615
vn -0.808938 0.412772 0.418615
vn -0.596723 0.066489 0.799688
vn -0.596723 0.066489 0.799688
vn -0.596723 0.066489 0.799688
vn -0.596723 0.066489 0.799688
vn -0.404857 0.835481 -0.371568
vn -0.404857 0.835481 -0.371568
vn -0.404857 0.835481 -0.371568
vn -0.404857 0.835481 -0.371568
vn 0.596723 -0.066489 -0.799688
vn 0.596723 -0.066489 -0.799688
vn 0.596723 -0.066489 -0.799688
vn 0.596723 -0.066489 -0.799688
vn 0.404857 -0.835481 0.371568
vn 0.404857 -0.835481 0.371568
vn 0.404857 -0.835481 0.371568
vn 0.404857 -0.835481 0.371568
vn 0.692829 0.545483 0.471632
vn 0.692829 0.545483 0.471632
vn 0.692829 0.545483 0.471632
vn 0.692829 0.545483 0.471632
vn -0.692829 -0.545483 -0.471632
vn -0.692829 -0.545483 -0.471632
vn -0.692829 -0.545483 -0.471632
vn -0.692829 -0.545483 -0.471632
vn -0.013464 -0.560973 0.827725
vn -0.013464 -0.560973 0.827725
vn -0.013464 -0.560973 0.827725
vn -0.013464 -0.560973 0.827725
vn -0.415065 0.756247 0.505778
vn -0.415065 0.756247 0.505778
vn -0.415065 0.756247 0.505778
vn -0.415065 0.756247 0.505778
vn 0.013464 0.560972 -0.827725
vn 0.013464 0.560972 -0.827725
vn 0.013464 0.560973 -0.827725
vn 0.013464 0.560972 -0.827725
vn 0.415064 -0.756247 -0.505778
vn 0.415064 -0.756248 -0.505778
vn 0.415064 -0.756248 -0.505778
vn 0.415064 -0.756248 -0.505778
vn 0.909692 0.336750 0.243022
vn 0.909692 0.336750 0.243022
vn 0.909692 0.336750 0.243022
vn 0.909692 0.336750 0.243022
vn -0.909692 -0.336749 -0.243022
vn -0.909692 -0.336749 -0.243022
vn -0.909692 -0.336749 -0.243022
vn -0.909692 -0.336749 -0.243022
vn 0.122134 -0.029956 0.992061
vn 0.122134 -0.029956 0.992061
vn 0.122134 -0.029956 0.992061
vn 0.122134 -0.029956 0.992061
vn 0.285942 0.958226 -0.006268
vn 0.285942 0.958226 -0.006268
vn 0.285942 0.958226 -0.006268
vn 0.285942 0.958226 -0.006268
vn -0.122134 0.029956 -0.992061
vn -0.122134 0.029956 -0.992061
vn -0.122134 0.029956 -0.992061
vn -0.122134 0.029956 -0.992061
vn -0.285942 -0.958227 0.006268
vn -0.285942 -0.958227 0.006268
vn -0.285942 -0.958227 0.006268
vn -0.285942 -0.958227 0.006268
vn 0.950432 -0.284438 -0.125598
vn 0.950431 -0.284438 -0.125598
vn 0.950431 -0.284438 -0.125598
vn 0.950432 -0.284438 -0.125598
vn -0.950431 0.284438 0.125598
vn -0.950431 0.284438 0.125598
vn -0.950431 0.284438 0.125598
vn -0.950431 0.284438 0.125598
vn -0.279193 -0.731163 0.622456
vn -0.279193 -0.731163 0.622456
vn -0.279193 -0.731163 0.622456
vn -0.279193 -0.731163 0.622456
vn -0.860786 0.477856 0.175218
vn -0.860786 0.477856 0.175218
vn -0.860786 0.477856 0.175218
vn -0.860786 0.477856 0.175218
vn 0.279193 0.731163 -0.622456
vn 0.279193 0.731163 -0.622456
vn 0.279193 0.731163 -0.622456
vn 0.279193 0.731163 -0.622456
vn 0.860786 -0.477856 -0.175218
vn 0.860786 -0.477856 -0.175218
vn 0.860786 -0.477855 -0.175218
vn 0.860786 -0.477856 -0.175218
vn 0.425556 0.486882 0.762789
vn 0.425556 0.486882 0.762789
vn 0.425556 0.486882 0.762789
vn 0.425556 0.486882 0.762789
vn -0.425557 -0.486882 -0.762789
vn -0.425557 -0.486882 -0.762789
vn -0.425557 -0.486882 -0.762789
vn -0.425557 -0.486882 -0.762789
vn 0.903481 0.059470 0.424484
vn 0.903481 0.059470 0.424484
vn 0.903481 0.059470 0.424483
vn 0.903481 0.059470 0.424483
vn -0.314108 -0.581982 0.750088
vn -0.314108 -0.581982 0.750088
vn -0.314108 -0.581982 0.750088
vn -0.314108 -0.581982 0.750088
vn -0.903481 -0.059469 -0.424484
vn -0.903481 -0.059469 -0.424484
vn -0.903481 -0.059469 -0.424484
vn -0.903481 -0.059469 -0.424484
vn 0.314108 0.581982 -0.750088
vn 0.314108 0.581982 -0.750089
vn 0.314108 0.581982 -0.750089
vn 0.314108 0.581982 -0.750089
vn -0.291649 0.811024 0.507130
vn -0.291649 0.811024 0.507130
vn -0.291649 0.811024 0.507130
vn -0.291649 0.811024 0.507130
vn 0.291649 -0.811024 -0.507130
vn 0.291649 -0.811024 -0.507130
vn 0.291649 -0.811024 -0.507130
vn 0.291649 -0.811024 -0.507130
vn 0.903481 0.059468 0.424483
vn 0.903481 0.059468 0.424483
vn 0.903481 0.059468 0.424483
vn 0.903481 0.059468 0.424483
vn -0.314107 -0.581982 0.750089
vn -0.314107 -0.581982 0.750089
vn -0.314107 -0.581982 0.750089
vn -0.314107 -0.581982 0.750089
vn -0.903481 -0.059469 -0.424483
vn -0.903481 -0.059469 -0.424483
vn -0.903481 -0.059469 -0.424483
vn -0.903481 -0.059469 -0.424483
vn 0.314108 0.581983 -0.750089
vn 0.314108 0.581983 -0.750089
vn 0.314108 0.581983 -0.750089
vn 0.314108 0.581983 -0.750089
vn -0.291648 0.811024 0.507130
vn -0.291648 0.811024 0.507130
vn -0.291648 0.811024 0.507130
vn -0.291648 0.811024 0.507130
vn 0.291648 -0.811024 -0.507130
vn 0.291648 -0.811024 -0.507130
vn 0.291648 -0.811024 -0.507130
vn 0.291648 -0.811024 -0.507130
s off
g cube_blue
usemtl blue_materialSG
f 1/1/1 2/2/2 4/3/3 3/4/4
f 3/4/5 4/3/6 6/5/7 5/6/8
f 5/6/9 6/5/10 8/7/11 7/8/12
f 7/8/13 8/7/14 2/9/15 1/10/16
f 2/2/17 8/11/18 6/12/19 4/3/20
f 7/13/21 1/1/22 3/4/23 5/14/24
f 9/15/25 10/16/26 12/17/27 11/18/28
f 11/18/29 12/17/30 14/19/31 13/20/32
f 13/20/33 14/19/34 16/21/35 15/22/36
f 15/22/37 16/21/38 10/23/39 9/24/40
f 10/16/41 16/25/42 14/26/43 12/17/44
f 15/27/45 9/15/46 11/18/47 13/28/48
f 17/29/49 18/30/50 20/31/51 19/32/52
f 19/32/53 20/31/54 22/33/55 21/34/56
f 21/34/57 22/33/58 24/35/59 23/36/60
f 23/36/61 24/35/62 18/37/63 17/38/64
f 18/30/65 24/39/66 22/40/67 20/31/68
f 23/41/69 17/29/70 19/32/71 21/42/72
f 25/43/73 26/44/74 28/45/75 27/46/76
f 27/46/77 28/45/78 30/47/79 29/48/80
f 29/48/81 30/47/82 32/49/83 31/50/84
f 31/50/85 32/49/86 26/51/87 25/52/88
f 26/44/89 32/53/90 30/54/91 28/45/92
f 31/55/93 25/43/94 27/46/95 29/56/96
f 33/57/97 34/58/98 36/59/99 35/60/100
f 35/60/101 36/59/102 38/61/103 37/62/104
f 37/62/105 38/61/106 40/63/107 39/64/108
f 39/64/109 40/63/110 34/65/111 33/66/112
f 34/58/113 40/67/114 38/68/115 36/59/116
f 39/69/117 33/57/118 35/60/119 37/70/120
f 41/71/121 42/72/122 44/73/123 43/74/124
f 43/74/125 44/73/126 46/75/127 45/76/128
f 45/76/129 46/75/130 48/77/131 47/78/132
f 47/78/133 48/77/134 42/79/135 41/80/136
f 42/72/137 48/81/138 46/82/139 44/73/140
f 47/83/141 41/71/142 43/74/143 45/84/144
f 49/85/145 50/86/146 52/87/147 51/88/148
f 51/88/149 52/87/150 54/89/151 53/90/152
f 53/90/153 54/89/154 56/91/155 55/92/156
f 55/92/157 56/91/158 50/93/159 49/94/160
f 50/86/161 56/95/162 54/96/163 52/87/164
f 55/97/165 49/85/166 51/88/167 53/98/168
f 57/99/169 58/100/170 60/101/171 59/102/172
f 59/102/173 60/101/174 62/103/175 61/104/176
f 61/104/177 62/103/178 64/105/179 63/106/180
f 63/106/181 64/105/182 58/107/183 57/108/184
f 58/100/185 64/109/186 62/110/187 60/101/188
f 63/111/189 57/99/190 59/102/191 61/112/192
f 65/113/193 66/114/194 68/115/195 67/116/196
f 67/116/197 68/115/198 70/117/199 69/118/200
f 69/118/201 70/117/202 72/119/203 71/120/204
f 71/120/205 72/119/206 66/121/207 65/122/208
f 66/114/209 72/123/210 70/124/211 68/115/212
f 71/125/213 65/113/214 67/116/215 69/126/216
f 73/127/217 74/128/218 76/129/219 75/130/220
f 75/130/221 76/129/222 78/131/223 77/132/224
f 77/132/225 78/131/226 80/133/227 79/134/228
f 79/134/229 80/133/230 74/135/231 73/136/232
f 74/128/233 80/137/234 78/138/235 76/129/236
f 79/139/237 73/127/238 75/130/239 77/140/240
f 81/141/241 82/142/242 84/143/243 83/144/244
f 83/144/245 84/143/246 86/145/247 85/146/248
f 85/146/249 86/145/250 88/147/251 87/148/252
f 87/148/253 88/147/254 82/149/255 81/150/256
f 82/142/257 88/151/258 86/152/259 84/143/260
f 87/153/261 81/141/262 83/144/263 85/154/264
