# This file uses centimeters as units for non-parametric coordinates.

mtllib environment_cubes_red.mtl
g default
v -206.313568 219.931030 -87.863579
v -152.725067 220.955139 -68.984459
v -219.450195 181.138748 -48.470894
v -165.861694 182.162842 -29.591776
v -233.047943 222.651459 -12.125448
v -179.459442 223.675568 6.753670
v -219.911316 261.443756 -51.518135
v -166.322815 262.467834 -32.639015
v 315.445068 188.775116 -366.566620
v 368.928101 133.910889 -371.406555
v 295.656891 163.338135 -296.886444
v 349.139893 108.473907 -301.726379
v 347.056641 210.633148 -265.024414
v 400.539673 155.768921 -269.864349
v 366.844849 236.070129 -334.704590
v 420.327850 181.205902 -339.544525
v 144.654587 161.219513 -337.387054
v 144.779694 184.744736 -342.379150
v 166.101273 163.369095 -326.719727
v 166.226379 186.894318 -331.711823
v 155.220245 167.876419 -305.751648
v 155.345352 191.401642 -310.743744
v 133.773560 165.726837 -316.418976
v 133.898666 189.252060 -321.411072
v 13.839132 35.880379 8.367074
v 33.874672 50.584007 1.290804
v 21.535255 37.246490 32.996258
v 41.570793 51.950119 25.919987
v 7.146370 58.450974 36.316338
v 27.181910 73.154602 29.240070
v -0.549753 57.084862 11.687157
v 19.485786 71.788490 4.610887
v 147.264252 11.335276 151.221207
v 147.539169 18.188065 139.350052
v 159.200150 17.053452 154.798523
v 159.475067 23.906240 142.927383
v 152.460770 27.460281 160.649948
v 152.735687 34.313072 148.778793
v 140.524872 21.742105 157.072617
v 140.799789 28.594894 145.201477
v 215.017212 148.597412 278.428833
v 238.323090 131.243134 289.597229
v 204.139114 152.583359 307.322571
v 227.444992 135.229065 318.490967
v 221.676819 178.117828 310.402771
v 244.982697 160.763550 321.571167
v 232.554916 174.131897 281.509033
v 255.860794 156.777603 292.677429
v -242.356186 33.160503 360.398010
v -244.547714 45.416080 337.755341
v -229.933807 53.568359 370.241638
v -232.125320 65.823936 347.598938
v -252.485397 63.618900 377.864288
v -254.676926 75.874481 355.221619
v -264.907776 43.211040 368.020691
v -267.099304 55.466621 345.377991
v -344.315918 115.318733 -9.995726
v -309.495056 131.712036 -5.269442
v -332.417511 84.286530 9.979291
v -297.596649 100.679825 14.705575
v -344.644775 100.773888 42.876587
v -309.823914 117.167183 47.602867
v -356.543182 131.806091 22.901569
v -321.722321 148.199387 27.627853
v -350.783966 118.192177 -366.715454
v -350.509033 125.044968 -378.586578
v -338.848083 123.910355 -363.138123
v -338.573151 130.763138 -375.009277
v -345.587463 134.317184 -357.286713
v -345.312531 141.169968 -369.157837
v -357.523346 128.599014 -360.864014
v -357.248413 135.451797 -372.735168
vt 0.375000 0.000000
vt 0.625000 0.000000
vt 0.625000 0.250000
vt 0.375000 0.250000
vt 0.625000 0.500000
vt 0.375000 0.500000
vt 0.625000 0.750000
vt 0.375000 0.750000
vt 0.625000 1.000000
vt 0.375000 1.000000
vt 0.875000 0.000000
vt 0.875000 0.250000
vt 0.125000 0.000000
vt 0.125000 0.250000
vt 0.375000 0.000000
vt 0.625000 0.000000
vt 0.625000 0.250000
vt 0.375000 0.250000
vt 0.625000 0.500000
vt 0.375000 0.500000
vt 0.625000 0.750000
vt 0.375000 0.750000
vt 0.625000 1.000000
vt 0.375000 1.000000
vt 0.875000 0.000000
vt 0.875000 0.250000
vt 0.125000 0.000000
vt 0.125000 0.250000
vt 0.375000 0.000000
vt 0.625000 0.000000
vt 0.625000 0.250000
vt 0.375000 0.250000
vt 0.625000 0.500000
vt 0.375000 0.500000
vt 0.625000 0.750000
vt 0.375000 0.750000
vt 0.625000 1.000000
vt 0.375000 1.000000
vt 0.875000 0.000000
vt 0.875000 0.250000
vt 0.125000 0.000000
vt 0.125000 0.250000
vt 0.375000 0.000000
vt 0.625000 0.000000
vt 0.625000 0.250000
vt 0.375000 0.250000
vt 0.625000 0.500000
vt 0.375000 0.500000
vt 0.625000 0.750000
vt 0.375000 0.750000
vt 0.625000 1.000000
vt 0.375000 1.000000
vt 0.875000 0.000000
vt 0.875000 0.250000
vt 0.125000 0.000000
vt 0.125000 0.250000
vt 0.375000 0.000000
vt 0.625000 0.000000
vt 0.625000 0.250000
vt 0.375000 0.250000
vt 0.625000 0.500000
vt 0.375000 0.500000
vt 0.625000 0.750000
vt 0.375000 0.750000
vt 0.625000 1.000000
vt 0.375000 1.000000
vt 0.875000 0.000000
vt 0.875000 0.250000
vt 0.125000 0.000000
vt 0.125000 0.250000
vt 0.375000 0.000000
vt 0.625000 0.000000
vt 0.625000 0.250000
vt 0.375000 0.250000
vt 0.625000 0.500000
vt 0.375000 0.500000
vt 0.625000 0.750000
vt 0.375000 0.750000
vt 0.625000 1.000000
vt 0.375000 1.000000
vt 0.875000 0.000000
vt 0.875000 0.250000
vt 0.125000 0.000000
vt 0.125000 0.250000
vt 0.375000 0.000000
vt 0.625000 0.000000
vt 0.625000 0.250000
vt 0.375000 0.250000
vt 0.625000 0.500000
vt 0.375000 0.500000
vt 0.625000 0.750000
vt 0.375000 0.750000
vt 0.625000 1.000000
vt 0.375000 1.000000
vt 0.875000 0.000000
vt 0.875000 0.250000
vt 0.125000 0.000000
vt 0.125000 0.250000
vt 0.375000 0.000000
vt 0.625000 0.000000
vt 0.625000 0.250000
vt 0.375000 0.250000
vt 0.625000 0.500000
vt 0.375000 0.500000
vt 0.625000 0.750000
vt 0.375000 0.750000
vt 0.625000 1.000000
vt 0.375000 1.000000
vt 0.875000 0.000000
vt 0.875000 0.250000
vt 0.125000 0.000000
vt 0.125000 0.250000
vt 0.375000 0.000000
vt 0.625000 0.000000
vt 0.625000 0.250000
vt 0.375000 0.250000
vt 0.625000 0.500000
vt 0.375000 0.500000
vt 0.625000 0.750000
vt 0.375000 0.750000
vt 0.625000 1.000000
vt 0.375000 1.000000
vt 0.875000 0.000000
vt 0.875000 0.250000
vt 0.125000 0.000000
vt 0.125000 0.250000
vn 0.239287 -0.730523 -0.639592
vn 0.239287 -0.730523 -0.639592
vn 0.239287 -0.730523 -0.639592
vn 0.239288 -0.730523 -0.639592
vn -0.231173 -0.682650 0.693216
vn -0.231173 -0.682650 0.693216
vn -0.231173 -0.682650 0.693216
vn -0.231173 -0.682650 0.693216
vn -0.239287 0.730523 0.639592
vn -0.239287 0.730523 0.639592
vn -0.239287 0.730523 0.639592
vn -0.239287 0.730523 0.639592
vn 0.231173 0.682650 -0.693216
vn 0.231173 0.682650 -0.693216
vn 0.231173 0.682650 -0.693216
vn 0.231173 0.682650 -0.693216
vn 0.943027 0.018022 0.332227
vn 0.943027 0.018022 0.332227
vn 0.943027 0.018022 0.332227
vn 0.943027 0.018022 0.332227
vn -0.943027 -0.018022 -0.332227
vn -0.943027 -0.018022 -0.332227
vn -0.943027 -0.018022 -0.332227
vn -0.943027 -0.018022 -0.332227
vn -0.669512 -0.616045 -0.415021
vn -0.669512 -0.616045 -0.415021
vn -0.669512 -0.616045 -0.415021
vn -0.669512 -0.616045 -0.415021
vn -0.257753 -0.331332 0.907625
vn -0.257753 -0.331332 0.907625
vn -0.257753 -0.331332 0.907625
vn -0.257753 -0.331332 0.907625
vn 0.669512 0.616045 0.415021
vn 0.669512 0.616045 0.415021
vn 0.669512 0.616045 0.415021
vn 0.669512 0.616045 0.415021
vn 0.257753 0.331331 -0.907625
vn 0.257753 0.331331 -0.907625
vn 0.257753 0.331331 -0.907625
vn 0.257753 0.331332 -0.907625
vn 0.696647 -0.714639 -0.063043
vn 0.696647 -0.714639 -0.063043
vn 0.696647 -0.714639 -0.063043
vn 0.696647 -0.714639 -0.063043
vn -0.696647 0.714639 0.063043
vn -0.696647 0.714639 0.063043
vn -0.696647 0.714639 0.063043
vn -0.696647 0.714639 0.063043
vn 0.452447 -0.187420 -0.871875
vn 0.452447 -0.187420 -0.871875
vn 0.452447 -0.187420 -0.871875
vn 0.452447 -0.187420 -0.871875
vn 0.891777 0.089382 0.443559
vn 0.891777 0.089382 0.443559
vn 0.891777 0.089382 0.443559
vn 0.891777 0.089382 0.443559
vn -0.452447 0.187419 0.871875
vn -0.452447 0.187419 0.871875
vn -0.452447 0.187419 0.871875
vn -0.452447 0.187419 0.871875
vn -0.891777 -0.089382 -0.443559
vn -0.891777 -0.089382 -0.443559
vn -0.891777 -0.089382 -0.443559
vn -0.891777 -0.089382 -0.443559
vn 0.005202 0.978205 -0.207577
vn 0.005202 0.978205 -0.207577
vn 0.005202 0.978205 -0.207577
vn 0.005202 0.978205 -0.207577
vn -0.005202 -0.978205 0.207577
vn -0.005202 -0.978205 0.207577
vn -0.005202 -0.978205 0.207577
vn -0.005202 -0.978205 0.207577
vn 0.556851 -0.820615 -0.128487
vn 0.556851 -0.820615 -0.128487
vn 0.556851 -0.820615 -0.128487
vn 0.556851 -0.820615 -0.128487
vn 0.297840 0.052869 0.953151
vn 0.297840 0.052869 0.953151
vn 0.297840 0.052869 0.953151
vn 0.297840 0.052869 0.953151
vn -0.556851 0.820615 0.128487
vn -0.556851 0.820615 0.128487
vn -0.556851 0.820615 0.128487
vn -0.556851 0.820615 0.128487
vn -0.297840 -0.052869 -0.953151
vn -0.297840 -0.052869 -0.953151
vn -0.297840 -0.052869 -0.953151
vn -0.297840 -0.052869 -0.953151
vn 0.775376 0.569031 -0.273852
vn 0.775376 0.569031 -0.273852
vn 0.775376 0.569031 -0.273852
vn 0.775376 0.569031 -0.273852
vn -0.775376 -0.569031 0.273852
vn -0.775376 -0.569031 0.273852
vn -0.775376 -0.569031 0.273852
vn -0.775376 -0.569031 0.273852
vn 0.491571 -0.759076 -0.426804
vn 0.491571 -0.759076 -0.426804
vn 0.491571 -0.759076 -0.426804
vn 0.491571 -0.759076 -0.426803
vn 0.870607 0.417085 0.260930
vn 0.870607 0.417085 0.260930
vn 0.870607 0.417085 0.260930
vn 0.870607 0.417085 0.260930
vn -0.491570 0.759077 0.426803
vn -0.491570 0.759077 0.426803
vn -0.491570 0.759077 0.426803
vn -0.491570 0.759077 0.426803
vn -0.870606 -0.417085 -0.260930
vn -0.870606 -0.417086 -0.260930
vn -0.870606 -0.417085 -0.260930
vn -0.870606 -0.417086 -0.260930
vn 0.020054 0.499843 -0.865884
vn 0.020054 0.499843 -0.865884
vn 0.020054 0.499843 -0.865884
vn 0.020054 0.499843 -0.865884
vn -0.020053 -0.499844 0.865883
vn -0.020053 -0.499844 0.865883
vn -0.020053 -0.499844 0.865883
vn -0.020053 -0.499844 0.865883
vn -0.563373 -0.820257 -0.098946
vn -0.563373 -0.820257 -0.098946
vn -0.563373 -0.820257 -0.098946
vn -0.563373 -0.820257 -0.098946
vn -0.349444 0.128042 0.928167
vn -0.349444 0.128042 0.928167
vn -0.349444 0.128042 0.928167
vn -0.349444 0.128042 0.928167
vn 0.563373 0.820256 0.098946
vn 0.563373 0.820256 0.098946
vn 0.563373 0.820256 0.098946
vn 0.563373 0.820256 0.098946
vn 0.349443 -0.128042 -0.928167
vn 0.349443 -0.128042 -0.928167
vn 0.349443 -0.128042 -0.928167
vn 0.349443 -0.128042 -0.928167
vn 0.748667 -0.557481 0.358767
vn 0.748666 -0.557481 0.358767
vn 0.748666 -0.557480 0.358767
vn 0.748666 -0.557481 0.358767
vn -0.748666 0.557480 -0.358768
vn -0.748666 0.557481 -0.358768
vn -0.748666 0.557481 -0.358768
vn -0.748666 0.557480 -0.358768
vn 0.872748 -0.388956 -0.294997
vn 0.872748 -0.388956 -0.294997
vn 0.872749 -0.388956 -0.294997
vn 0.872748 -0.388956 -0.294997
vn 0.480747 0.789785 0.380949
vn 0.480747 0.789785 0.380949
vn 0.480747 0.789785 0.380949
vn 0.480747 0.789785 0.380949
vn -0.872748 0.388957 0.294997
vn -0.872748 0.388957 0.294997
vn -0.872748 0.388957 0.294997
vn -0.872748 0.388957 0.294997
vn -0.480747 -0.789785 -0.380949
vn -0.480747 -0.789785 -0.380949
vn -0.480747 -0.789785 -0.380949
vn -0.480747 -0.789785 -0.380949
vn -0.084813 0.474291 -0.876273
vn -0.084813 0.474291 -0.876273
vn -0.084813 0.474291 -0.876273
vn -0.084813 0.474291 -0.876273
vn 0.084812 -0.474291 0.876273
vn 0.084812 -0.474291 0.876273
vn 0.084812 -0.474291 0.876273
vn 0.084812 -0.474291 0.876273
vn 0.315332 -0.425196 -0.848395
vn 0.315332 -0.425196 -0.848395
vn 0.315332 -0.425196 -0.848395
vn 0.315332 -0.425196 -0.848395
vn 0.306850 -0.800296 0.515140
vn 0.306850 -0.800296 0.515140
vn 0.306850 -0.800296 0.515140
vn 0.306850 -0.800296 0.515140
vn -0.315332 0.425196 0.848395
vn -0.315332 0.425196 0.848395
vn -0.315332 0.425196 0.848395
vn -0.315332 0.425196 0.848395
vn -0.306850 0.800296 -0.515140
vn -0.306850 0.800296 -0.515140
vn -0.306850 0.800296 -0.515140
vn -0.306850 0.800296 -0.515140
vn 0.898003 0.422770 0.121887
vn 0.898003 0.422770 0.121887
vn 0.898003 0.422770 0.121887
vn 0.898003 0.422770 0.121887
vn -0.898003 -0.422771 -0.121887
vn -0.898003 -0.422771 -0.121887
vn -0.898003 -0.422771 -0.121887
vn -0.898003 -0.422771 -0.121887
vn 0.491571 -0.759077 -0.426803
vn 0.491571 -0.759076 -0.426803
vn 0.491571 -0.759076 -0.426803
vn 0.491571 -0.759076 -0.426803
vn 0.870607 0.417084 0.260931
vn 0.870607 0.417084 0.260931
vn 0.870607 0.417084 0.260931
vn 0.870607 0.417084 0.260931
vn -0.491571 0.759077 0.426802
vn -0.491571 0.759077 0.426802
vn -0.491571 0.759077 0.426802
vn -0.491571 0.759077 0.426802
vn -0.870606 -0.417085 -0.260931
vn -0.870606 -0.417085 -0.260931
vn -0.870606 -0.417085 -0.260931
vn -0.870606 -0.417085 -0.260931
vn 0.020055 0.499843 -0.865884
vn 0.020055 0.499843 -0.865884
vn 0.020055 0.499843 -0.865884
vn 0.020055 0.499843 -0.865884
vn -0.020054 -0.499845 0.865883
vn -0.020054 -0.499845 0.865883
vn -0.020054 -0.499845 0.865883
vn -0.020054 -0.499845 0.865883
s off
g cube_red
usemtl blinn2SG
f 1/1/1 2/2/2 4/3/3 3/4/4
f 3/4/5 4/3/6 6/5/7 5/6/8
f 5/6/9 6/5/10 8/7/11 7/8/12
f 7/8/13 8/7/14 2/9/15 1/10/16
f 2/2/17 8/11/18 6/12/19 4/3/20
f 7/13/21 1/1/22 3/4/23 5/14/24
f 9/15/25 10/16/26 12/17/27 11/18/28
f 11/18/29 12/17/30 14/19/31 13/20/32
f 13/20/33 14/19/34 16/21/35 15/22/36
f 15/22/37 16/21/38 10/23/39 9/24/40
f 10/16/41 16/25/42 14/26/43 12/17/44
f 15/27/45 9/15/46 11/18/47 13/28/48
f 17/29/49 18/30/50 20/31/51 19/32/52
f 19/32/53 20/31/54 22/33/55 21/34/56
f 21/34/57 22/33/58 24/35/59 23/36/60
f 23/36/61 24/35/62 18/37/63 17/38/64
f 18/30/65 24/39/66 22/40/67 20/31/68
f 23/41/69 17/29/70 19/32/71 21/42/72
f 25/43/73 26/44/74 28/45/75 27/46/76
f 27/46/77 28/45/78 30/47/79 29/48/80
f 29/48/81 30/47/82 32/49/83 31/50/84
f 31/50/85 32/49/86 26/51/87 25/52/88
f 26/44/89 32/53/90 30/54/91 28/45/92
f 31/55/93 25/43/94 27/46/95 29/56/96
f 33/57/97 34/58/98 36/59/99 35/60/100
f 35/60/101 36/59/102 38/61/103 37/62/104
f 37/62/105 38/61/106 40/63/107 39/64/108
f 39/64/109 40/63/110 34/65/111 33/66/112
f 34/58/113 40/67/114 38/68/115 36/59/116
f 39/69/117 33/57/118 35/60/119 37/70/120
f 41/71/121 42/72/122 44/73/123 43/74/124
f 43/74/125 44/73/126 46/75/127 45/76/128
f 45/76/129 46/75/130 48/77/131 47/78/132
f 47/78/133 48/77/134 42/79/135 41/80/136
f 42/72/137 48/81/138 46/82/139 44/73/140
f 47/83/141 41/71/142 43/74/143 45/84/144
f 49/85/145 50/86/146 52/87/147 51/88/148
f 51/88/149 52/87/150 54/89/151 53/90/152
f 53/90/153 54/89/154 56/91/155 55/92/156
f 55/92/157 56/91/158 50/93/159 49/94/160
f 50/86/161 56/95/162 54/96/163 52/87/164
f 55/97/165 49/85/166 51/88/167 53/98/168
f 57/99/169 58/100/170 60/101/171 59/102/172
f 59/102/173 60/101/174 62/103/175 61/104/176
f 61/104/177 62/103/178 64/105/179 63/106/180
f 63/106/181 64/105/182 58/107/183 57/108/184
f 58/100/185 64/109/186 62/110/187 60/101/188
f 63/111/189 57/99/190 59/102/191 61/112/192
f 65/113/193 66/114/194 68/115/195 67/116/196
f 67/116/197 68/115/198 70/117/199 69/118/200
f 69/118/201 70/117/202 72/119/203 71/120/204
f 71/120/205 72/119/206 66/121/207 65/122/208
f 66/114/209 72/123/210 70/124/211 68/115/212
f 71/125/213 65/113/214 67/116/215 69/126/216
